<?xml version="1.0" standalone="no"?>
<!DOCTYPE svg PUBLIC "-//W3C//DTD SVG 20010904//EN"
 "http://www.w3.org/TR/2001/REC-SVG-20010904/DTD/svg10.dtd">
<svg version="1.0" xmlns="http://www.w3.org/2000/svg"
 width="194.000000pt" height="253.000000pt" viewBox="0 0 194.000000 253.000000"
 preserveAspectRatio="xMidYMid meet">

<g transform="translate(0.000000,253.000000) scale(0.100000,-0.100000)"
fill="#af1628" stroke="none">
<path d="M1429 2511 c-100 -40 -173 -111 -222 -218 l-22 -48 -1 -766 c-1 -574
-5 -776 -14 -804 -7 -20 -26 -53 -43 -72 -101 -115 -283 -88 -348 52 -17 37
-19 74 -19 500 0 499 -3 533 -54 620 -100 171 -314 237 -493 153 -65 -31 -135
-99 -174 -170 l-34 -63 -3 -603 -3 -602 25 -25 c47 -47 118 -25 135 43 5 21 9
268 9 582 0 355 4 554 11 572 5 15 27 45 47 68 43 48 121 76 184 65 58 -10
125 -57 152 -107 23 -43 23 -45 28 -543 l5 -500 33 -67 c94 -190 320 -268 510
-176 65 31 148 116 180 185 l27 58 5 785 5 785 23 42 c26 50 83 91 143 104 88
20 187 -29 229 -112 20 -38 20 -60 20 -1100 0 -869 3 -1067 14 -1093 26 -62
115 -70 145 -13 8 16 11 303 9 1117 l-3 1095 -27 57 c-35 76 -95 138 -170 179
-58 30 -71 34 -163 36 -79 3 -110 -1 -146 -16z"/>
</g>
</svg>
