<?xml version="1.0" encoding="iso-8859-1"?>
<!-- Generator: Adobe Illustrator 19.0.0, SVG Export Plug-In . SVG Version: 6.00 Build 0)  -->
<svg version="1.1" id="Capa_1" xmlns="http://www.w3.org/2000/svg" xmlns:xlink="http://www.w3.org/1999/xlink" x="0px" y="0px"
	 viewBox="0 0 512.001 512.001" style="enable-background:new 0 0 512.001 512.001;" xml:space="preserve" fill="#8a4f08">
<g>
	<g>
		<path d="M225.66,153.342c-1.86-1.86-4.44-2.92-7.07-2.92s-5.21,1.06-7.07,2.92c-1.86,1.87-2.93,4.44-2.93,7.08
			c0,2.63,1.07,5.2,2.93,7.07c1.86,1.859,4.44,2.92,7.07,2.92s5.21-1.061,7.07-2.92c1.86-1.87,2.93-4.44,2.93-7.07
			C228.59,157.782,227.52,155.212,225.66,153.342z"/>
	</g>
</g>
<g>
	<g>
		<path d="M107.237,238.252c-20.953,0-38,17.047-38,38c0,5.522,4.477,10,10,10s10-4.478,10-10c0-9.925,8.075-18,18-18
			s18,8.075,18,18s-8.075,18-18,18c-5.523,0-10,4.478-10,10c0,5.522,4.477,10,10,10c20.953,0,38-17.047,38-38
			S128.19,238.252,107.237,238.252z"/>
	</g>
</g>
<g>
	<g>
		<path d="M256.07,49.183c-1.86-1.86-4.44-2.93-7.07-2.93s-5.21,1.069-7.07,2.93c-1.86,1.86-2.93,4.44-2.93,7.07
			s1.07,5.21,2.93,7.069c1.86,1.86,4.44,2.931,7.07,2.931c2.63-0.001,5.21-1.071,7.07-2.931c1.86-1.859,2.93-4.439,2.93-7.069
			S257.93,51.043,256.07,49.183z"/>
	</g>
</g>
<g>
	<g>
		<path d="M427.07,49.182c-1.86-1.86-4.43-2.93-7.07-2.93c-2.63,0-5.21,1.069-7.07,2.93c-1.86,1.86-2.93,4.44-2.93,7.07
			s1.07,5.21,2.93,7.069c1.86,1.861,4.44,2.931,7.07,2.931s5.21-1.07,7.07-2.931c1.86-1.859,2.93-4.439,2.93-7.069
			S428.93,51.042,427.07,49.182z"/>
	</g>
</g>
<g>
	<g>
		<path d="M502,474.252H196v-44c0-5.522-4.477-10-10-10h-15.763v-91.58c11.854-14.223,19-32.501,19-52.42
			c0-11.777-2.515-22.972-7.005-33.104l27.159-46.896c2.768-4.779,1.138-10.897-3.642-13.665c-4.78-2.769-10.897-1.137-13.666,3.642
			l-21.805,37.652c-12.366-14.86-29.875-25.285-49.768-28.538l96.225-119.047c6.124,9.822,16.6,16.657,28.712,17.786l-17.661,30.496
			c-2.768,4.779-1.137,10.897,3.642,13.665c1.578,0.914,3.301,1.349,5.002,1.349c3.451,0,6.809-1.789,8.663-4.99l25.683-44.348
			h112.945v23.003l-52.798,52.847c-3.125,3.127-3.825,7.936-1.722,11.825l20.78,38.419h-0.546
			c-12.958,0-23.501,10.543-23.501,23.501v39.647c0,5.788,2.942,11.063,7.87,14.11c4.895,3.026,10.882,3.303,16.016,0.737
			c2.333-1.165,4.854-1.756,7.492-1.756h1.114c9.271,0,16.814,7.543,16.814,16.814s-7.543,16.813-16.814,16.813h-1.113
			c-2.638,0-5.159-0.591-7.491-1.756c-5.135-2.564-11.123-2.288-16.017,0.737c-4.928,3.048-7.87,8.322-7.87,14.11v39.603
			c0,12.958,10.543,23.501,23.501,23.501h35.124c-1.584,4.165-2.408,8.61-2.408,13.104v1.113c0,20.299,16.515,36.813,36.814,36.813
			c20.299,0,36.814-16.515,36.814-36.813v-1.113c0-4.493-0.823-8.939-2.407-13.104h35.124c12.958,0,23.501-10.543,23.501-23.501
			V239.847c0.002-12.457-9.743-22.677-22.01-23.449l20.808-38.471c2.104-3.89,1.403-8.698-1.722-11.825l-52.798-52.847V67.576
			c1.119-3.578,1.724-7.382,1.724-11.324c0-21.231-17.047-38.504-38-38.504c-6.432,0-12.493,1.634-17.809,4.504H265.942
			c-5.105-2.554-10.856-4-16.942-4c-19.218,0-35.139,14.344-37.646,32.885L94.927,195.178c-39.396,5.957-69.69,40.043-69.69,81.074
			c0,19.583,6.909,37.577,18.405,51.693L21.89,420.252H10c-5.523,0-10,4.478-10,10v54c0,5.522,4.477,10,10,10h176h316
			c5.523,0,10-4.478,10-10C512,478.73,507.523,474.252,502,474.252z M491.998,239.849v139.06H492c0,1.931-1.57,3.501-3.501,3.501
			H472v-43.322c0-5.522-4.477-10-10-10s-10,4.478-10,10v43.322h-4.047c-5.899,0-11.401,3.176-14.358,8.288
			c-2.983,5.157-2.995,11.31-0.033,16.46c1.453,2.524,2.22,5.414,2.22,8.355v1.113c0,9.271-7.542,16.813-16.814,16.813
			c-9.272,0-16.814-7.543-16.814-16.813v-1.113c0-2.94,0.768-5.83,2.22-8.354c2.963-5.15,2.951-11.304-0.031-16.46
			c-2.957-5.113-8.459-8.289-14.359-8.289h-40.546c-1.931,0-3.501-1.57-3.501-3.501v-34.484c3.649,1.189,7.458,1.79,11.378,1.79
			h1.113c20.3,0,36.814-16.515,36.814-36.813c0-20.3-16.515-36.814-36.814-36.814h-1.114c-3.92,0-7.729,0.601-11.378,1.79v-34.529
			c0-1.931,1.571-3.501,3.501-3.501h40.546c5.899,0,11.401-3.176,14.358-8.288c2.982-5.156,2.995-11.31,0.032-16.46
			c-1.453-2.524-2.22-5.414-2.22-8.354v-1.113c0-9.271,7.543-16.814,16.814-16.814s16.814,7.543,16.814,16.814v1.113
			c0,2.941-0.768,5.83-2.221,8.355c-2.962,5.15-2.949,11.304,0.033,16.46c2.958,5.111,8.459,8.287,14.358,8.287h40.546
			C490.428,236.348,491.998,237.918,491.998,239.849z M420,37.748c9.757,0,18,8.474,18,18.504c0,9.925-8.075,18-18,18
			s-18-8.075-18-18C402,46.222,410.243,37.748,420,37.748z M436.276,90.582v16.812h-32.553V90.582h0.001
			c4.937,2.35,10.455,3.67,16.276,3.67C425.821,94.252,431.34,92.932,436.276,90.582z M442.133,127.394l47.528,47.572l-22.149,40.95
			c-0.076,0.141-0.136,0.287-0.205,0.43h-13.93c1.584-4.164,2.407-8.609,2.407-13.103v-1.113c0-20.3-16.515-36.814-36.814-36.814
			c-20.299,0-36.814,16.515-36.814,36.814v1.113c0,4.493,0.823,8.938,2.407,13.103h-11.866c-0.071-0.143-0.131-0.288-0.207-0.43
			l-22.149-40.95l47.528-47.572H442.133z M284.316,42.252h100.296c-1.679,4.343-2.612,9.062-2.612,14
			c0,3.942,0.604,7.746,1.724,11.324v2.676h-99.408c1.725-4.336,2.684-9.057,2.684-14S286.041,46.588,284.316,42.252z M249,38.252
			c9.925,0,18,8.075,18,18s-8.075,18-18,18s-18-8.075-18-18S239.075,38.252,249,38.252z M107.237,214.252
			c23.168,0,43.395,12.782,54.036,31.655c0.365,1.166,0.939,2.265,1.712,3.237c4.001,8.194,6.252,17.392,6.252,27.108
			c0,34.187-27.813,62-62,62s-62-27.813-62-62S73.05,214.252,107.237,214.252z M60.507,343.577
			c13.269,9.238,29.373,14.675,46.73,14.675c15.76,0,30.489-4.479,43-12.217v74.217H42.438L60.507,343.577z M176,474.252H20v-34h156
			V474.252z"/>
	</g>
</g>
<g>
	<g>
		<path d="M469.07,292.352c-1.86-1.859-4.44-2.93-7.07-2.93s-5.21,1.07-7.07,2.93c-1.86,1.86-2.93,4.44-2.93,7.07
			s1.07,5.21,2.93,7.07c1.86,1.859,4.44,2.93,7.07,2.93s5.21-1.07,7.07-2.93s2.93-4.44,2.93-7.07S470.93,294.212,469.07,292.352z"/>
	</g>
</g>
<g>
</g>
<g>
</g>
<g>
</g>
<g>
</g>
<g>
</g>
<g>
</g>
<g>
</g>
<g>
</g>
<g>
</g>
<g>
</g>
<g>
</g>
<g>
</g>
<g>
</g>
<g>
</g>
<g>
</g>
</svg>
