<?xml version="1.0" standalone="no"?>
<!DOCTYPE svg PUBLIC "-//W3C//DTD SVG 20010904//EN"
 "http://www.w3.org/TR/2001/REC-SVG-20010904/DTD/svg10.dtd">
<svg version="1.0" xmlns="http://www.w3.org/2000/svg"
 width="512.000000pt" height="512.000000pt" viewBox="0 0 512.000000 512.000000"
 preserveAspectRatio="xMidYMid meet"  fill="#ffc107">

<g transform="translate(0.000000,512.000000) scale(0.100000,-0.100000)" stroke="none">
<path d="M125 5101 c-113 -52 -157 -184 -99 -292 38 -69 90 -102 170 -107 l64
-4 144 -162 c79 -88 189 -213 245 -276 l101 -114 -180 -181 c-99 -100 -180
-185 -180 -189 0 -17 94 -106 113 -106 11 0 101 50 199 110 99 61 182 110 186
110 4 0 54 -47 112 -105 58 -58 109 -105 115 -105 9 0 464 179 474 186 2 2
-78 83 -178 180 -99 97 -181 180 -181 184 0 5 50 89 110 188 61 98 110 188
110 199 0 19 -89 113 -106 113 -4 0 -89 -81 -189 -180 l-181 -180 -276 245
-276 244 -4 65 c-5 82 -39 135 -111 171 -61 30 -125 32 -182 6z"/>
<path d="M4830 5107 c-85 -39 -130 -107 -130 -194 l0 -51 -257 -229 c-141
-125 -267 -236 -278 -245 -21 -16 -25 -12 -191 153 -93 94 -177 174 -187 180
-14 8 -27 1 -67 -37 -28 -26 -50 -56 -50 -67 0 -11 50 -101 110 -199 61 -99
110 -183 110 -188 0 -4 -81 -86 -179 -182 l-180 -173 92 -42 c51 -23 146 -63
212 -89 66 -25 132 -52 146 -60 25 -13 29 -10 134 96 59 61 112 110 116 110 4
0 88 -49 187 -110 98 -60 187 -110 198 -110 26 0 104 80 104 105 0 12 -67 87
-175 195 -150 150 -173 176 -161 190 7 8 117 133 244 276 l231 262 64 4 c81 5
133 38 171 107 77 142 -28 313 -191 310 -26 0 -59 -6 -73 -12z"/>
<path d="M2350 3981 c-96 -32 -211 -72 -255 -89 -383 -148 -541 -210 -810
-318 -170 -68 -316 -128 -323 -132 -20 -13 -32 -181 -39 -522 -8 -424 13 -693
77 -1010 144 -708 485 -1229 989 -1515 169 -95 388 -174 535 -191 143 -17 479
101 701 246 398 261 690 691 841 1239 94 342 134 678 134 1120 0 245 -22 618
-37 631 -12 11 -817 331 -1068 425 -282 106 -495 175 -537 175 -18 0 -112 -27
-208 -59z"/>
<path d="M630 1079 c-190 -183 -350 -342 -357 -353 -17 -32 -274 -719 -270
-723 2 -2 168 59 368 134 l365 138 158 165 c88 91 208 215 267 276 60 62 109
115 109 119 0 4 -34 61 -75 126 -42 65 -102 181 -136 256 -33 76 -65 151 -72
166 l-12 28 -345 -332z"/>
<path d="M4105 1318 c-47 -117 -138 -293 -205 -397 -29 -44 -50 -85 -48 -90 1
-4 122 -132 267 -282 l264 -274 365 -138 c201 -75 367 -136 369 -134 3 4 -45
137 -102 282 -13 33 -56 148 -96 255 l-72 195 -121 115 c-66 63 -195 187 -286
276 -91 88 -195 188 -231 222 l-66 62 -38 -92z"/>
</g>
</svg>
