<?xml version="1.0" encoding="iso-8859-1"?>
<!-- Generator: Adobe Illustrator 19.0.0, SVG Export Plug-In . SVG Version: 6.00 Build 0)  -->
<svg version="1.1" id="Layer_1" xmlns="http://www.w3.org/2000/svg" xmlns:xlink="http://www.w3.org/1999/xlink" x="0px" y="0px"
	 viewBox="0 0 512 512" style="enable-background:new 0 0 512 512;" xml:space="preserve" fill="#ed730b">
<g>
	<g>
		<path d="M395.22,261.932c8.121-18.579,12.638-39.079,12.638-60.617c0-59.993-34.971-111.967-85.597-136.62
			c-1.166-35.551-30.43-64.118-66.26-64.118s-65.094,28.567-66.26,64.118c-50.626,24.652-85.598,76.627-85.598,136.62
			c0,21.538,4.517,42.039,12.638,60.617L0,329.356l54.095,93.696l25.607-14.785v103.156h108.19v-24.44h136.213v24.44h108.19V408.267
			l25.607,14.785L512,329.356L395.22,261.932z M256,35.446c11.951,0,22.366,6.704,27.685,16.547
			c-8.98-1.661-18.231-2.537-27.685-2.537c-9.453,0-18.704,0.876-27.685,2.537C233.634,42.15,244.049,35.446,256,35.446z
			 M173.85,118.023c22.067-21.768,51.18-33.695,82.142-33.695c0.55,0,1.101,0.003,1.653,0.012
			c30.325,0.414,58.987,12.528,80.707,34.11c12.398,12.318,21.724,26.921,27.558,42.823c-16.082-11.24-35.545-17.719-56.14-17.719
			c-19.239,0-37.882,5.627-53.77,16.055c-15.888-10.428-34.531-16.055-53.77-16.055c-20.642-0.001-40.151,6.509-56.254,17.797
			C151.824,145.216,161.251,130.451,173.85,118.023z M202.23,178.423c15.571,0,30.538,5.721,42.141,16.108L256,204.941
			l11.629-10.411c11.602-10.388,26.569-16.108,42.141-16.108c28.304,0,53.295,18.989,60.881,46.21
			c-10.839,53.373-58.126,93.668-114.651,93.668c-56.524,0.001-103.812-40.295-114.651-93.668
			C148.936,197.412,173.926,178.423,202.23,178.423z M195.794,452.112h-42.772v24.44h-38.45v-62.28h81.222V452.112z
			 M281.335,452.112h-50.671v-37.84h50.671V452.112z M397.427,476.553h-38.45v-24.44h-42.772v-37.84h81.222V476.553z
			 M445.142,375.418l-73.718-42.56l-17.435,30.198l28.313,16.347H129.698l28.313-16.347l-17.435-30.198l-73.718,42.56l-19.225-33.3
			l86.685-50.048c27.716,37.066,71.945,61.101,121.682,61.101s93.966-24.036,121.683-61.101l86.685,50.048L445.142,375.418z"/>
	</g>
</g>
<g>
	<g>
		<rect x="186.264" y="215.613" width="34.87" height="34.87"/>
	</g>
</g>
<g>
	<g>
		<rect x="290.875" y="215.613" width="34.87" height="34.87"/>
	</g>
</g>
<g>
</g>
<g>
</g>
<g>
</g>
<g>
</g>
<g>
</g>
<g>
</g>
<g>
</g>
<g>
</g>
<g>
</g>
<g>
</g>
<g>
</g>
<g>
</g>
<g>
</g>
<g>
</g>
<g>
</g>
</svg>
